<?xml version="1.0" encoding="UTF-8"?>
<!-- Do not edit this file with editors other than draw.io -->
<!DOCTYPE svg PUBLIC "-//W3C//DTD SVG 1.1//EN" "http://www.w3.org/Graphics/SVG/1.1/DTD/svg11.dtd">
<svg xmlns="http://www.w3.org/2000/svg" xmlns:xlink="http://www.w3.org/1999/xlink" version="1.1" width="1402px" height="860px" viewBox="-0.5 -0.5 1402 860" content="&lt;mxfile host=&quot;Electron&quot; agent=&quot;Mozilla/5.0 (Windows NT 10.0; Win64; x64) AppleWebKit/537.36 (KHTML, like Gecko) draw.io/22.0.3 Chrome/114.0.5735.289 Electron/25.8.4 Safari/537.36&quot; modified=&quot;2025-12-03T06:13:21.056Z&quot; version=&quot;22.0.3&quot; etag=&quot;dx6Ez2MgePleqlFQyc-C&quot; type=&quot;device&quot;&gt;&lt;diagram name=&quot;Страница — 1&quot; id=&quot;qlypbeigWOdqjw8TPfKB&quot;&gt;7V1dk6I8Fv41Vr1z4Ragolyq3T0zVTNbWz3z1tbuzVaUqEwjYSD2x/z6TQhggKBBEVRS1WVLOBwgeZ6TeM5J0hvMt++fA+BvviMbuj1Ds997g4eeYUxMjXzSgg9WYFkDVrAOHJsV6fuCH84fGBfG1613jg3DjCBGyMWOny1cIs+DS5wpA0GA3rJiK+Rm7+qDNSwU/FgCt1j6b8fGm/i1jPG+/At01pvkzrppsTNbkAjHbxJugI3euKLBY28wDxDC7Nv2fQ5dWndJvbDrnkrOpg8WQA/LXPD34uPb82Zl9T+DL/+x9d+774t+X0/a5xW4u/iVew9az5rSz5nWe9B7E/ZpxCWG9vUn+YiOZokU+XyIPoeR7IS7epi9OqoK/JHUL6kVn37FYEGLZiEGAY5hoJFj0q4YOB4MyLEeHbsu8EMnkmYSG8e1v4EPtMOJnuSIaAvQC5wjF9HrbbgCO5eWr4jW+Ca6GR8/ga3jUpR+ge4rxM4SkBNb9MoeLLp5AEPnD3+MMMDcMcE+5I+h7fCHLlq+QHv/YhSwGW1v38ibhvs33W09viR8c7Yu8CAtyxV9gcCOizz0DSwICdltiiiJgfMKAwzfuaIYNZ8h2kIcfBCRhMOTuNliCqeYedsTQh9qceGGY8N4MImZGLNwnSrfA5V8ibFaCbd6EbcHsfVMuTfboMD5QyGV1E8eb7kK5YtmKDJi2gFcYeQnbQ1XOP66QBijbdLIce2IsWwHyP8JgjXEccHKcd3ibXzkeDiq0tGM/JGan2v/GPVG5KXn5FjfH5M/Kh7gOfLIQxMmUc0QhPgNhpWYIABfEVtHbMxxyB2F1GRwMUSVA4i8InaA+0z56q0jO7XBWzeuhreNg+EPHyyp6BvpBQvsPgQZRGpl5UYdw8axbeiVtno1cEUYgcHjK2RQ0ZtqbHn7wjW2UbWtY237JqmuDrikfjyACbF3nh0WEJQ+6TmgGgjMlMlInMGa+XtHBwKzLWG/QzAwJWc1/z2qeI22Uz+WpSc8FGypBUvPvYLAAeT/EtBhkVAkrp38OZe0cD+pJeGFqxgg9CR5TrCl+I6fdo8ZQ/snJG+YO88/PsFdH9i/dmF6I4qt9PwLaQvHW7NzYIeR4PXSFit7yUTQddYA74Kjct5uCwNneUSKmss+CMn3I4I+Ch3soDKxFYweqh9CjMmrlj0c8mmNurTGDlYIvVO5rgRQ5Ns6/h/BLvTJa4iQV2hs3iCkKOKQQu2z8E50/PiUjBzJqO8xGRmmY0Uz+pwkw0gj+kLk9ehwxI0YU5lHrnCYiKVD0BE3BGWDTyvForcIfa4CCJFZHWTrhRT7+zLVEbB2jwTjeigZgl6gY3jPWfEudBTD0o7iMGMvwEgiNuaIqHEMGyd0nHJ6GAVn/UjazPKRcTbSUsY/xbUr4NqwS1wbXZBrD86a/Oh3+xw/nrjvBkcsS9R1kfKnLMlmXK+W4xWnVrHritllCtml18suCXWNsMu8dE/GIK9zI8ZZ9H2Q6cn2bNOyDItoFDOMH0nyNB1zdDQ4zrEbpZfn+lS++2PPlj6houkN0HSScIh3Q1m1doJS6hqh6fiGaDotDESHiqAdJKhlFQmahgpr6kdl1DVC0MmFCTodFCiicXQsc6zk+k7Gm0FhiPtYUDtPfmIqhl0vw3RD2Ada9faBEuoaoZhVijoVM7yZmOFHFkBHQ4iWUQ7c80KIY0EyhYr2qGjP7UV7yvQt6hxA1PEDgQ0sLhxHSsYri3x1qFjSieMavo88pXewpHuHYw7oQ73BCf7svLomhjFjQS4U/QEeAd6KuDDVE2zazmserrRhejSFkoGDZ/9gtdI0+p55g/C4BY7L4Z3pyBmLQECMzP0vSA0RBW4kg0Ye3FUDpfcAdkMK7MrotoBD6SDiPeBwoEDWCsikY2nngExCXSMgE2WFqE6zFhxJB3tOx5GUukZwJMp4UNarBdRJRzDOsF4y6hpBnSgTQKGuBdTJe/XPMXYS6hqB3bgUZcqrf2te/bTrOu7WH5Uj90y3viAS+5DOkayWA6vMXymIsnFPSUQlZK/DE3gAQKf8KM2pa8T0WUWkNge5njGwzYU5MiVAF8eDbqPDrQCyyh652wfdRBD13AdhJlymlZEJ2rCQDgvLMFs6NQ94qUtDWQuwfFkH9P36sQubxrNIF+eFSdPO9u5tes6lFda3QfDyV7Be/EV7zV5UndG/T+w/PWOMRuyA//LpU680503oci+PEjXlDL/1rgGQFiPP9rCEVO1FmSvvw7wD5ipHeTvdg7wP8wyQSahrBGSCgI1C3VXYOnkX6MkwlFLXCAxVvKYdWyfv8Tzd1smoawRkQwWyVkBWwcF5himTUNcIyipEc5TH89Y8nsa4ODYs8Xhq5VA+z+M5KUZuvv7sH8mfVJavZt9myvMafJsHoHLKj9WcukasnmjCooLc2RaqAsoqOzfvAHWiWXgKdS2gTt4xdweoazWOo1B3iqfuDNRJqGsCdck9FcgaBpm8H+5kkEmpawRkKubQDsjk/XCnWzIZdY2ATMUcrgR1FRxzZ9g2CXWNwE602q9yzN2JY24gve69NSyH8nmOOUswIeQaZ2LXu66aluwrMeBWg8otf6ise73Ox9SW1eB8PECHU36Q59Q1YtnVBJqLWOEKKKvsfLwD1KkJNFeCOnnn4x2gTgVargR18s7HM1Anoa4R1JUvd3iJJUv2a5M8vi+hoPjI2ib55O3ik5amg3P3YOVUZp7IaNwGamxUnIyc1Roql+SavA/2ZK5JqWuEa+XrHiqDfkmQyftgTzfoMuoaAFk6nFEgaxhkFVyuZ5gyCXWNoKw8nKQ8rLfmYR2OhkXgNjvZ29AEoaNr9LDWtSS+8q027ltNjZaatB7VhpqZU4O5rQKq7k1SNzQ1M6cdkHVoPrWhjRTIWgFZh+ZTG5qpQNYKyDo0W9rQyncHa3AB8TOc7McvPefZ+ZCB5LMrN30tJOzQbHJDmyhL3wrIujSb3NDUJlj340EdDa0icJvNUU3Np2DsEHe2JdsRhVF10gXa9HG8GdZp+xpxiswyRQ+5BTznBbfrkFuhLl3Uk7lXhwUfKu8xtZJLjIK3+IFbDS/dPzGVSZ+Bv126eVHujuOsh5ic5Uuy2zLGrl+d08kLjzi3tHZ81brscEf1UDU7h2vc2+jmk9EMXU0Xq2UMdME9he4AZCrG1Q7IOpRWa+gqzNUOyDqURUvG+gpkrYCsQ+mjhq7CXO2ArEvpo7oKc7UDsk6lj+pqr6D7cX6aw0ERuA2nj+pqvbiL2DFd7fPD14ZaH65tlHUwh9IQBXYU6lpAXZeSKg1doe46UNelLMsEZAp1baOuS2mXRoUF5BTqLom6LuUZGoJF5RTq2kBdpxIPDdGaanWmdwlnuqapWCaXWsV/4ZOw0qm2aZKUwaVQPcQ5VmUJUzkKRVuUwsQ/KKIKxyQe9z1jAHV7BMcF7pAzljkeAFOIyup5r1qyl2uy+7ZgxGeKfhgkzrr6HWqGaA20mlGSw8eQa28eK1MuITC95KkgXMzfe+TgIjMnm99CPE0X1LNzsu8Gc+YVYq589gvrxwxtSfT4wLYdb52BXma2SCRF2md5UCqbX4kXNGCQLwwKJTZ7PrZX5F4d7RkzT4DcCCC8zKT87r6QT1sQrB2PkUmLuaRFJHsFgQPIf2+3hYGzZCIeCrY0VFKQohGEPggd4B0RTLufsESQkrsP7F87Go5gEtF+4sn5F3J5VOn0HNhhxJ1DPu3aXaqjTGQFAd4FsB9CjIlM2VNEj4sd5EkJkv8+Ch0qf6yetuiXU/bmOIB4uSmedckApZ/wI3eSB4QLwjDTur5exEOy29dMlBWdrk+mccnQlCFgSy2Ktwh9DlK3sG/3TC+8J2/scxuYi5LEY/sdV8SRBGpfUEYJXSws8J4WiiwELWem6QI9gQ3gZLUU9QTmcgIXq3p6gkmuIxjKLrddR0fw29TNfxlf0Wa6nv53/Wz97/vzr76E57FStZbUiKDepCtJ1FsKXbcnVBI5DBDlyn7YT15p8x3ZkEr8Hw==&lt;/diagram&gt;&lt;/mxfile&gt;" style="background-color: rgb(255, 255, 255);"><defs/><g><rect x="0" y="120" width="1400" height="738" fill="rgb(255, 255, 255)" stroke="none" pointer-events="none"/><path d="M 0 120 L 1400 120 L 1400 858 L 0 858 L 0 120" fill="none" stroke="rgb(0, 0, 0)" stroke-linecap="square" stroke-miterlimit="10" pointer-events="none"/><path d="M 0 203 L 200 203 L 400 203 L 600 203 L 801 203 L 991 203 L 1201 203 L 1400 203" fill="none" stroke="rgb(0, 0, 0)" stroke-miterlimit="10" pointer-events="none"/><path d="M 0 295 L 200 295 L 400 295 L 600 295 L 801 295 L 991 295 L 1201 295 L 1400 295" fill="none" stroke="rgb(0, 0, 0)" stroke-miterlimit="10" pointer-events="none"/><path d="M 0 390 L 200 390 L 400 390 L 600 390 L 801 390 L 991 390 L 1201 390 L 1400 390" fill="none" stroke="rgb(0, 0, 0)" stroke-miterlimit="10" pointer-events="none"/><path d="M 0 480 L 200 480 L 400 480 L 600 480 L 801 480 L 991 480 L 1201 480 L 1400 480" fill="none" stroke="rgb(0, 0, 0)" stroke-miterlimit="10" pointer-events="none"/><path d="M 0 574 L 200 574 L 400 574 L 600 574 L 801 574 L 991 574 L 1201 574 L 1400 574" fill="none" stroke="rgb(0, 0, 0)" stroke-miterlimit="10" pointer-events="none"/><path d="M 0 669 L 200 669 L 400 669 L 600 669 L 801 669 L 991 669 L 1201 669 L 1400 669" fill="none" stroke="rgb(0, 0, 0)" stroke-miterlimit="10" pointer-events="none"/><path d="M 0 763 L 200 763 L 400 763 L 600 763 L 801 763 L 991 763 L 1201 763 L 1400 763" fill="none" stroke="rgb(0, 0, 0)" stroke-miterlimit="10" pointer-events="none"/><path d="M 200 120 L 200 203 L 200 295 L 200 390 L 200 480 L 200 574 L 200 669 L 200 763 L 200 858" fill="none" stroke="rgb(0, 0, 0)" stroke-miterlimit="10" pointer-events="none"/><path d="M 400 120 L 400 203 L 400 295 L 400 390 L 400 480 L 400 574 L 400 669 L 400 763 L 400 858" fill="none" stroke="rgb(0, 0, 0)" stroke-miterlimit="10" pointer-events="none"/><path d="M 600 120 L 600 203 L 600 295 L 600 390 L 600 480 L 600 574 L 600 669 L 600 763 L 600 858" fill="none" stroke="rgb(0, 0, 0)" stroke-miterlimit="10" pointer-events="none"/><path d="M 801 120 L 801 203 L 801 295 L 801 390 L 801 480 L 801 574 L 801 669 L 801 763 L 801 858" fill="none" stroke="rgb(0, 0, 0)" stroke-miterlimit="10" pointer-events="none"/><path d="M 991 120 L 991 203 L 991 295 L 991 390 L 991 480 L 991 574 L 991 669 L 991 763 L 991 858" fill="none" stroke="rgb(0, 0, 0)" stroke-miterlimit="10" pointer-events="none"/><path d="M 1201 120 L 1201 203 L 1201 295 L 1201 390 L 1201 480 L 1201 574 L 1201 669 L 1201 763 L 1201 858" fill="none" stroke="rgb(0, 0, 0)" stroke-miterlimit="10" pointer-events="none"/><g fill="rgb(0, 0, 0)" font-family="Helvetica" text-anchor="middle" font-size="16px"><text x="699.5" y="495.5">Карта IT ландшафта</text></g><rect x="0" y="120" width="1400" height="83" fill="rgb(255, 255, 255)" stroke="none" pointer-events="none"/><path d="M 0 120 L 1400 120 L 1400 203 L 0 203 L 0 120" fill="none" stroke="rgb(0, 0, 0)" stroke-linecap="square" stroke-miterlimit="10" pointer-events="none"/><rect x="0" y="120" width="200" height="83" fill="rgb(255, 255, 255)" stroke="none" pointer-events="all"/><path d="M 0 120 L 200 120 L 200 203 L 0 203 L 0 120" fill="none" stroke="rgb(0, 0, 0)" stroke-linecap="square" stroke-miterlimit="10" pointer-events="all"/><rect x="200" y="120" width="200" height="83" fill="rgb(255, 255, 255)" stroke="none" pointer-events="all"/><path d="M 200 120 L 400 120 L 400 203 L 200 203 L 200 120" fill="none" stroke="rgb(0, 0, 0)" stroke-linecap="square" stroke-miterlimit="10" pointer-events="all"/><g transform="translate(-0.5 -0.5)"><switch><foreignObject pointer-events="none" width="100%" height="100%" requiredFeatures="http://www.w3.org/TR/SVG11/feature#Extensibility" style="overflow: visible; text-align: left;"><div xmlns="http://www.w3.org/1999/xhtml" style="display: flex; align-items: unsafe center; justify-content: unsafe center; width: 198px; height: 1px; padding-top: 162px; margin-left: 201px;"><div data-drawio-colors="color: rgb(0, 0, 0); " style="box-sizing: border-box; font-size: 0px; text-align: center; max-height: 79px; overflow: hidden;"><div style="display: inline-block; font-size: 16px; font-family: Helvetica; color: rgb(0, 0, 0); line-height: 1.2; pointer-events: all; font-weight: bold; white-space: normal; overflow-wrap: normal;"><p style="margin: 0px; font-style: normal; font-variant-caps: normal; font-width: normal; line-height: normal; font-family: &quot;Helvetica Neue&quot;; font-size-adjust: none; font-kerning: auto; font-variant-alternates: normal; font-variant-ligatures: normal; font-variant-numeric: normal; font-variant-east-asian: normal; font-variant-position: normal; font-feature-settings: normal; font-optical-sizing: auto; font-variation-settings: normal;"><span style="font-family: Helvetica; font-weight: 400;">Продажи в сети отделений </span></p></div></div></div></foreignObject><text x="300" y="166" fill="rgb(0, 0, 0)" font-family="Helvetica" font-size="16px" text-anchor="middle" font-weight="bold">Продажи в сети отделений </text></switch></g><rect x="400" y="120" width="200" height="83" fill="rgb(255, 255, 255)" stroke="none" pointer-events="all"/><path d="M 400 120 L 600 120 L 600 203 L 400 203 L 400 120" fill="none" stroke="rgb(0, 0, 0)" stroke-linecap="square" stroke-miterlimit="10" pointer-events="all"/><g transform="translate(-0.5 -0.5)"><switch><foreignObject pointer-events="none" width="100%" height="100%" requiredFeatures="http://www.w3.org/TR/SVG11/feature#Extensibility" style="overflow: visible; text-align: left;"><div xmlns="http://www.w3.org/1999/xhtml" style="display: flex; align-items: unsafe center; justify-content: unsafe center; width: 198px; height: 1px; padding-top: 162px; margin-left: 401px;"><div data-drawio-colors="color: rgb(0, 0, 0); " style="box-sizing: border-box; font-size: 0px; text-align: center; max-height: 79px; overflow: hidden;"><div style="display: inline-block; font-size: 16px; font-family: Helvetica; color: rgb(0, 0, 0); line-height: 1.2; pointer-events: all; font-weight: bold; white-space: normal; overflow-wrap: normal;"><span style="font-weight: 400;">Продажи через колл-центр</span></div></div></div></foreignObject><text x="500" y="166" fill="rgb(0, 0, 0)" font-family="Helvetica" font-size="16px" text-anchor="middle" font-weight="bold">Продажи через колл-центр</text></switch></g><rect x="600" y="120" width="201" height="83" fill="rgb(255, 255, 255)" stroke="none" pointer-events="all"/><path d="M 600 120 L 801 120 L 801 203 L 600 203 L 600 120" fill="none" stroke="rgb(0, 0, 0)" stroke-linecap="square" stroke-miterlimit="10" pointer-events="all"/><g transform="translate(-0.5 -0.5)"><switch><foreignObject pointer-events="none" width="100%" height="100%" requiredFeatures="http://www.w3.org/TR/SVG11/feature#Extensibility" style="overflow: visible; text-align: left;"><div xmlns="http://www.w3.org/1999/xhtml" style="display: flex; align-items: unsafe center; justify-content: unsafe center; width: 199px; height: 1px; padding-top: 162px; margin-left: 601px;"><div data-drawio-colors="color: rgb(0, 0, 0); " style="box-sizing: border-box; font-size: 0px; text-align: center; max-height: 79px; overflow: hidden;"><div style="display: inline-block; font-size: 16px; font-family: Helvetica; color: rgb(0, 0, 0); line-height: 1.2; pointer-events: all; font-weight: bold; white-space: normal; overflow-wrap: normal;"><span style="font-weight: 400;">Digital-оповещения клиентов</span></div></div></div></foreignObject><text x="701" y="166" fill="rgb(0, 0, 0)" font-family="Helvetica" font-size="16px" text-anchor="middle" font-weight="bold">Digital-оповещения клиентов</text></switch></g><rect x="801" y="120" width="190" height="83" fill="rgb(255, 255, 255)" stroke="none" pointer-events="all"/><path d="M 801 120 L 991 120 L 991 203 L 801 203 L 801 120" fill="none" stroke="rgb(0, 0, 0)" stroke-linecap="square" stroke-miterlimit="10" pointer-events="all"/><g transform="translate(-0.5 -0.5)"><switch><foreignObject pointer-events="none" width="100%" height="100%" requiredFeatures="http://www.w3.org/TR/SVG11/feature#Extensibility" style="overflow: visible; text-align: left;"><div xmlns="http://www.w3.org/1999/xhtml" style="display: flex; align-items: unsafe center; justify-content: unsafe center; width: 188px; height: 1px; padding-top: 162px; margin-left: 802px;"><div data-drawio-colors="color: rgb(0, 0, 0); " style="box-sizing: border-box; font-size: 0px; text-align: center; max-height: 79px; overflow: hidden;"><div style="display: inline-block; font-size: 16px; font-family: Helvetica; color: rgb(0, 0, 0); line-height: 1.2; pointer-events: all; font-weight: bold; white-space: normal; overflow-wrap: normal;"><span style="font-weight: 400;">Обслуживание депозитных процессов</span></div></div></div></foreignObject><text x="896" y="166" fill="rgb(0, 0, 0)" font-family="Helvetica" font-size="16px" text-anchor="middle" font-weight="bold">Обслуживание депозитных процессов</text></switch></g><rect x="991" y="120" width="210" height="83" fill="rgb(255, 255, 255)" stroke="none" pointer-events="all"/><path d="M 991 120 L 1201 120 L 1201 203 L 991 203 L 991 120" fill="none" stroke="rgb(0, 0, 0)" stroke-linecap="square" stroke-miterlimit="10" pointer-events="all"/><g transform="translate(-0.5 -0.5)"><switch><foreignObject pointer-events="none" width="100%" height="100%" requiredFeatures="http://www.w3.org/TR/SVG11/feature#Extensibility" style="overflow: visible; text-align: left;"><div xmlns="http://www.w3.org/1999/xhtml" style="display: flex; align-items: unsafe center; justify-content: unsafe center; width: 208px; height: 1px; padding-top: 162px; margin-left: 992px;"><div data-drawio-colors="color: rgb(0, 0, 0); " style="box-sizing: border-box; font-size: 0px; text-align: center; max-height: 79px; overflow: hidden;"><div style="display: inline-block; font-size: 16px; font-family: Helvetica; color: rgb(0, 0, 0); line-height: 1.2; pointer-events: all; font-weight: bold; white-space: normal; overflow-wrap: normal;"><span style="font-weight: 400;">Обслуживание кредитных процессов</span></div></div></div></foreignObject><text x="1096" y="166" fill="rgb(0, 0, 0)" font-family="Helvetica" font-size="16px" text-anchor="middle" font-weight="bold">Обслуживание кредитных процессов</text></switch></g><rect x="1201" y="120" width="199" height="83" fill="rgb(255, 255, 255)" stroke="none" pointer-events="all"/><path d="M 1201 120 L 1400 120 L 1400 203 L 1201 203 L 1201 120" fill="none" stroke="rgb(0, 0, 0)" stroke-linecap="square" stroke-miterlimit="10" pointer-events="all"/><g transform="translate(-0.5 -0.5)"><switch><foreignObject pointer-events="none" width="100%" height="100%" requiredFeatures="http://www.w3.org/TR/SVG11/feature#Extensibility" style="overflow: visible; text-align: left;"><div xmlns="http://www.w3.org/1999/xhtml" style="display: flex; align-items: unsafe center; justify-content: unsafe center; width: 197px; height: 1px; padding-top: 162px; margin-left: 1202px;"><div data-drawio-colors="color: rgb(0, 0, 0); " style="box-sizing: border-box; font-size: 0px; text-align: center; max-height: 79px; overflow: hidden;"><div style="display: inline-block; font-size: 16px; font-family: Helvetica; color: rgb(0, 0, 0); line-height: 1.2; pointer-events: all; font-weight: bold; white-space: normal; overflow-wrap: normal;"><span style="font-weight: 400;">Управление договорами</span></div></div></div></foreignObject><text x="1300" y="166" fill="rgb(0, 0, 0)" font-family="Helvetica" font-size="16px" text-anchor="middle" font-weight="bold">Управление договорами</text></switch></g><rect x="0" y="203" width="1400" height="92" fill="rgb(255, 255, 255)" stroke="none" pointer-events="none"/><path d="M 0 203 L 1400 203 L 1400 295 L 0 295 L 0 203" fill="none" stroke="rgb(0, 0, 0)" stroke-linecap="square" stroke-miterlimit="10" pointer-events="none"/><rect x="0" y="203" width="200" height="92" fill="rgb(255, 255, 255)" stroke="none" pointer-events="all"/><path d="M 0 203 L 200 203 L 200 295 L 0 295 L 0 203" fill="none" stroke="rgb(0, 0, 0)" stroke-linecap="square" stroke-miterlimit="10" pointer-events="all"/><g transform="translate(-0.5 -0.5)"><switch><foreignObject pointer-events="none" width="100%" height="100%" requiredFeatures="http://www.w3.org/TR/SVG11/feature#Extensibility" style="overflow: visible; text-align: left;"><div xmlns="http://www.w3.org/1999/xhtml" style="display: flex; align-items: unsafe center; justify-content: unsafe center; width: 198px; height: 1px; padding-top: 249px; margin-left: 1px;"><div data-drawio-colors="color: rgb(0, 0, 0); " style="box-sizing: border-box; font-size: 0px; text-align: center; max-height: 88px; overflow: hidden;"><div style="display: inline-block; font-size: 16px; font-family: Helvetica; color: rgb(0, 0, 0); line-height: 1.2; pointer-events: all; white-space: normal; overflow-wrap: normal;"><p style="margin: 0px; font-style: normal; font-variant-caps: normal; font-width: normal; line-height: normal; font-family: &quot;Helvetica Neue&quot;; font-size-adjust: none; font-kerning: auto; font-variant-alternates: normal; font-variant-ligatures: normal; font-variant-numeric: normal; font-variant-east-asian: normal; font-variant-position: normal; font-feature-settings: normal; font-optical-sizing: auto; font-variation-settings: normal;"><span style="font-family: Helvetica;"><b>Управление обслуживанием в сети отделений</b></span></p></div></div></div></foreignObject><text x="100" y="254" fill="rgb(0, 0, 0)" font-family="Helvetica" font-size="16px" text-anchor="middle">Управление обслуживанием в сети отделений</text></switch></g><rect x="200" y="203" width="200" height="92" fill="rgb(255, 255, 255)" stroke="none" pointer-events="all"/><path d="M 200 203 L 400 203 L 400 295 L 200 295 L 200 203" fill="none" stroke="rgb(0, 0, 0)" stroke-linecap="square" stroke-miterlimit="10" pointer-events="all"/><g transform="translate(-0.5 -0.5)"><switch><foreignObject pointer-events="none" width="100%" height="100%" requiredFeatures="http://www.w3.org/TR/SVG11/feature#Extensibility" style="overflow: visible; text-align: left;"><div xmlns="http://www.w3.org/1999/xhtml" style="display: flex; align-items: unsafe center; justify-content: unsafe center; width: 198px; height: 1px; padding-top: 249px; margin-left: 201px;"><div data-drawio-colors="color: rgb(0, 0, 0); " style="box-sizing: border-box; font-size: 0px; text-align: center; max-height: 88px; overflow: hidden;"><div style="display: inline-block; font-size: 16px; font-family: Helvetica; color: rgb(0, 0, 0); line-height: 1.2; pointer-events: all; white-space: normal; overflow-wrap: normal;">АБС<div><font color="#ff0000">Email</font><br /></div></div></div></div></foreignObject><text x="300" y="254" fill="rgb(0, 0, 0)" font-family="Helvetica" font-size="16px" text-anchor="middle">АБСEmail...</text></switch></g><rect x="400" y="203" width="200" height="92" fill="rgb(255, 255, 255)" stroke="none" pointer-events="all"/><path d="M 400 203 L 600 203 L 600 295 L 400 295 L 400 203" fill="none" stroke="rgb(0, 0, 0)" stroke-linecap="square" stroke-miterlimit="10" pointer-events="all"/><g transform="translate(-0.5 -0.5)"><switch><foreignObject pointer-events="none" width="100%" height="100%" requiredFeatures="http://www.w3.org/TR/SVG11/feature#Extensibility" style="overflow: visible; text-align: left;"><div xmlns="http://www.w3.org/1999/xhtml" style="display: flex; align-items: unsafe center; justify-content: unsafe center; width: 198px; height: 1px; padding-top: 249px; margin-left: 401px;"><div data-drawio-colors="color: rgb(0, 0, 0); " style="box-sizing: border-box; font-size: 0px; text-align: center; max-height: 88px; overflow: hidden;"><div style="display: inline-block; font-size: 16px; font-family: Helvetica; color: rgb(0, 0, 0); line-height: 1.2; pointer-events: all; white-space: normal; overflow-wrap: normal;">АБС</div></div></div></foreignObject><text x="500" y="254" fill="rgb(0, 0, 0)" font-family="Helvetica" font-size="16px" text-anchor="middle">АБС</text></switch></g><rect x="600" y="203" width="201" height="92" fill="rgb(255, 255, 255)" stroke="none" pointer-events="all"/><path d="M 600 203 L 801 203 L 801 295 L 600 295 L 600 203" fill="none" stroke="rgb(0, 0, 0)" stroke-linecap="square" stroke-miterlimit="10" pointer-events="all"/><rect x="801" y="203" width="190" height="92" fill="rgb(255, 255, 255)" stroke="none" pointer-events="all"/><path d="M 801 203 L 991 203 L 991 295 L 801 295 L 801 203" fill="none" stroke="rgb(0, 0, 0)" stroke-linecap="square" stroke-miterlimit="10" pointer-events="all"/><rect x="991" y="203" width="210" height="92" fill="rgb(255, 255, 255)" stroke="none" pointer-events="all"/><path d="M 991 203 L 1201 203 L 1201 295 L 991 295 L 991 203" fill="none" stroke="rgb(0, 0, 0)" stroke-linecap="square" stroke-miterlimit="10" pointer-events="all"/><rect x="1201" y="203" width="199" height="92" fill="rgb(255, 255, 255)" stroke="none" pointer-events="all"/><path d="M 1201 203 L 1400 203 L 1400 295 L 1201 295 L 1201 203" fill="none" stroke="rgb(0, 0, 0)" stroke-linecap="square" stroke-miterlimit="10" pointer-events="all"/><rect x="0" y="295" width="1400" height="95" fill="rgb(255, 255, 255)" stroke="none" pointer-events="none"/><path d="M 0 295 L 1400 295 L 1400 390 L 0 390 L 0 295" fill="none" stroke="rgb(0, 0, 0)" stroke-linecap="square" stroke-miterlimit="10" pointer-events="none"/><rect x="0" y="295" width="200" height="95" fill="rgb(255, 255, 255)" stroke="none" pointer-events="all"/><path d="M 0 295 L 200 295 L 200 390 L 0 390 L 0 295" fill="none" stroke="rgb(0, 0, 0)" stroke-linecap="square" stroke-miterlimit="10" pointer-events="all"/><g transform="translate(-0.5 -0.5)"><switch><foreignObject pointer-events="none" width="100%" height="100%" requiredFeatures="http://www.w3.org/TR/SVG11/feature#Extensibility" style="overflow: visible; text-align: left;"><div xmlns="http://www.w3.org/1999/xhtml" style="display: flex; align-items: unsafe center; justify-content: unsafe center; width: 198px; height: 1px; padding-top: 343px; margin-left: 1px;"><div data-drawio-colors="color: rgb(0, 0, 0); " style="box-sizing: border-box; font-size: 0px; text-align: center; max-height: 91px; overflow: hidden;"><div style="display: inline-block; font-size: 16px; font-family: Helvetica; color: rgb(0, 0, 0); line-height: 1.2; pointer-events: all; font-weight: bold; white-space: normal; overflow-wrap: normal;">Колл-центр</div></div></div></foreignObject><text x="100" y="347" fill="rgb(0, 0, 0)" font-family="Helvetica" font-size="16px" text-anchor="middle" font-weight="bold">Колл-центр</text></switch></g><rect x="200" y="295" width="200" height="95" fill="none" stroke="none" pointer-events="all"/><path d="M 200 295 L 400 295 L 400 390 L 200 390 L 200 295" fill="none" stroke="#d6b656" stroke-linecap="square" stroke-miterlimit="10" pointer-events="all"/><rect x="400" y="295" width="200" height="95" fill="rgb(255, 255, 255)" stroke="none" pointer-events="all"/><path d="M 400 295 L 600 295 L 600 390 L 400 390 L 400 295" fill="none" stroke="rgb(0, 0, 0)" stroke-linecap="square" stroke-miterlimit="10" pointer-events="all"/><g transform="translate(-0.5 -0.5)"><switch><foreignObject pointer-events="none" width="100%" height="100%" requiredFeatures="http://www.w3.org/TR/SVG11/feature#Extensibility" style="overflow: visible; text-align: left;"><div xmlns="http://www.w3.org/1999/xhtml" style="display: flex; align-items: unsafe center; justify-content: unsafe center; width: 198px; height: 1px; padding-top: 343px; margin-left: 401px;"><div data-drawio-colors="color: rgb(0, 0, 0); " style="box-sizing: border-box; font-size: 0px; text-align: center; max-height: 91px; overflow: hidden;"><div style="display: inline-block; font-size: 16px; font-family: Helvetica; color: rgb(0, 0, 0); line-height: 1.2; pointer-events: all; white-space: normal; overflow-wrap: normal;">система КЦ<div><span style="background-color: transparent; color: light-dark(rgb(0, 0, 0), rgb(255, 255, 255));">АБС</span></div></div></div></div></foreignObject><text x="500" y="347" fill="rgb(0, 0, 0)" font-family="Helvetica" font-size="16px" text-anchor="middle">система КЦ...</text></switch></g><rect x="600" y="295" width="201" height="95" fill="rgb(255, 255, 255)" stroke="none" pointer-events="all"/><path d="M 600 295 L 801 295 L 801 390 L 600 390 L 600 295" fill="none" stroke="rgb(0, 0, 0)" stroke-linecap="square" stroke-miterlimit="10" pointer-events="all"/><rect x="801" y="295" width="190" height="95" fill="rgb(255, 255, 255)" stroke="none" pointer-events="all"/><path d="M 801 295 L 991 295 L 991 390 L 801 390 L 801 295" fill="none" stroke="rgb(0, 0, 0)" stroke-linecap="square" stroke-miterlimit="10" pointer-events="all"/><rect x="991" y="295" width="210" height="95" fill="rgb(255, 255, 255)" stroke="none" pointer-events="all"/><path d="M 991 295 L 1201 295 L 1201 390 L 991 390 L 991 295" fill="none" stroke="rgb(0, 0, 0)" stroke-linecap="square" stroke-miterlimit="10" pointer-events="all"/><rect x="1201" y="295" width="199" height="95" fill="rgb(255, 255, 255)" stroke="none" pointer-events="all"/><path d="M 1201 295 L 1400 295 L 1400 390 L 1201 390 L 1201 295" fill="none" stroke="rgb(0, 0, 0)" stroke-linecap="square" stroke-miterlimit="10" pointer-events="all"/><rect x="0" y="390" width="1400" height="90" fill="rgb(255, 255, 255)" stroke="none" pointer-events="none"/><path d="M 0 390 L 1400 390 L 1400 480 L 0 480 L 0 390" fill="none" stroke="rgb(0, 0, 0)" stroke-linecap="square" stroke-miterlimit="10" pointer-events="none"/><rect x="0" y="390" width="200" height="90" fill="rgb(255, 255, 255)" stroke="none" pointer-events="all"/><path d="M 0 390 L 200 390 L 200 480 L 0 480 L 0 390" fill="none" stroke="rgb(0, 0, 0)" stroke-linecap="square" stroke-miterlimit="10" pointer-events="all"/><g transform="translate(-0.5 -0.5)"><switch><foreignObject pointer-events="none" width="100%" height="100%" requiredFeatures="http://www.w3.org/TR/SVG11/feature#Extensibility" style="overflow: visible; text-align: left;"><div xmlns="http://www.w3.org/1999/xhtml" style="display: flex; align-items: unsafe center; justify-content: unsafe center; width: 198px; height: 1px; padding-top: 435px; margin-left: 1px;"><div data-drawio-colors="color: rgb(0, 0, 0); " style="box-sizing: border-box; font-size: 0px; text-align: center; max-height: 86px; overflow: hidden;"><div style="display: inline-block; font-size: 16px; font-family: Helvetica; color: rgb(0, 0, 0); line-height: 1.2; pointer-events: all; font-weight: bold; white-space: normal; overflow-wrap: normal;">IT-отдел</div></div></div></foreignObject><text x="100" y="440" fill="rgb(0, 0, 0)" font-family="Helvetica" font-size="16px" text-anchor="middle" font-weight="bold">IT-отдел</text></switch></g><rect x="200" y="390" width="200" height="90" fill="rgb(255, 255, 255)" stroke="none" pointer-events="all"/><path d="M 200 390 L 400 390 L 400 480 L 200 480 L 200 390" fill="none" stroke="rgb(0, 0, 0)" stroke-linecap="square" stroke-miterlimit="10" pointer-events="all"/><rect x="400" y="390" width="200" height="90" fill="rgb(255, 255, 255)" stroke="none" pointer-events="all"/><path d="M 400 390 L 600 390 L 600 480 L 400 480 L 400 390" fill="none" stroke="rgb(0, 0, 0)" stroke-linecap="square" stroke-miterlimit="10" pointer-events="all"/><rect x="600" y="390" width="201" height="90" fill="rgb(255, 255, 255)" stroke="none" pointer-events="all"/><path d="M 600 390 L 801 390 L 801 480 L 600 480 L 600 390" fill="none" stroke="rgb(0, 0, 0)" stroke-linecap="square" stroke-miterlimit="10" pointer-events="all"/><rect x="801" y="390" width="190" height="90" fill="rgb(255, 255, 255)" stroke="none" pointer-events="all"/><path d="M 801 390 L 991 390 L 991 480 L 801 480 L 801 390" fill="none" stroke="rgb(0, 0, 0)" stroke-linecap="square" stroke-miterlimit="10" pointer-events="all"/><rect x="991" y="390" width="210" height="90" fill="rgb(255, 255, 255)" stroke="none" pointer-events="all"/><path d="M 991 390 L 1201 390 L 1201 480 L 991 480 L 991 390" fill="none" stroke="rgb(0, 0, 0)" stroke-linecap="square" stroke-miterlimit="10" pointer-events="all"/><rect x="1201" y="390" width="199" height="90" fill="rgb(255, 255, 255)" stroke="none" pointer-events="all"/><path d="M 1201 390 L 1400 390 L 1400 480 L 1201 480 L 1201 390" fill="none" stroke="rgb(0, 0, 0)" stroke-linecap="square" stroke-miterlimit="10" pointer-events="all"/><rect x="0" y="480" width="1400" height="94" fill="rgb(255, 255, 255)" stroke="none" pointer-events="none"/><path d="M 0 480 L 1400 480 L 1400 574 L 0 574 L 0 480" fill="none" stroke="rgb(0, 0, 0)" stroke-linecap="square" stroke-miterlimit="10" pointer-events="none"/><rect x="0" y="480" width="200" height="94" fill="rgb(255, 255, 255)" stroke="none" pointer-events="all"/><path d="M 0 480 L 200 480 L 200 574 L 0 574 L 0 480" fill="none" stroke="rgb(0, 0, 0)" stroke-linecap="square" stroke-miterlimit="10" pointer-events="all"/><g transform="translate(-0.5 -0.5)"><switch><foreignObject pointer-events="none" width="100%" height="100%" requiredFeatures="http://www.w3.org/TR/SVG11/feature#Extensibility" style="overflow: visible; text-align: left;"><div xmlns="http://www.w3.org/1999/xhtml" style="display: flex; align-items: unsafe center; justify-content: unsafe center; width: 198px; height: 1px; padding-top: 527px; margin-left: 1px;"><div data-drawio-colors="color: rgb(0, 0, 0); " style="box-sizing: border-box; font-size: 0px; text-align: center; max-height: 90px; overflow: hidden;"><div style="display: inline-block; font-size: 16px; font-family: Helvetica; color: rgb(0, 0, 0); line-height: 1.2; pointer-events: all; font-weight: bold; white-space: normal; overflow-wrap: normal;">Управление обслуживанием депозитных продуктов</div></div></div></foreignObject><text x="100" y="532" fill="rgb(0, 0, 0)" font-family="Helvetica" font-size="16px" text-anchor="middle" font-weight="bold">Управление обслуживанием депозитных продуктов</text></switch></g><rect x="200" y="480" width="200" height="94" fill="rgb(255, 255, 255)" stroke="none" pointer-events="all"/><path d="M 200 480 L 400 480 L 400 574 L 200 574 L 200 480" fill="none" stroke="rgb(0, 0, 0)" stroke-linecap="square" stroke-miterlimit="10" pointer-events="all"/><rect x="400" y="480" width="200" height="94" fill="rgb(255, 255, 255)" stroke="none" pointer-events="all"/><path d="M 400 480 L 600 480 L 600 574 L 400 574 L 400 480" fill="none" stroke="rgb(0, 0, 0)" stroke-linecap="square" stroke-miterlimit="10" pointer-events="all"/><rect x="600" y="480" width="201" height="94" fill="rgb(255, 255, 255)" stroke="none" pointer-events="all"/><path d="M 600 480 L 801 480 L 801 574 L 600 574 L 600 480" fill="none" stroke="rgb(0, 0, 0)" stroke-linecap="square" stroke-miterlimit="10" pointer-events="all"/><rect x="801" y="480" width="190" height="94" fill="rgb(255, 255, 255)" stroke="none" pointer-events="all"/><path d="M 801 480 L 991 480 L 991 574 L 801 574 L 801 480" fill="none" stroke="rgb(0, 0, 0)" stroke-linecap="square" stroke-miterlimit="10" pointer-events="all"/><g transform="translate(-0.5 -0.5)"><switch><foreignObject pointer-events="none" width="100%" height="100%" requiredFeatures="http://www.w3.org/TR/SVG11/feature#Extensibility" style="overflow: visible; text-align: left;"><div xmlns="http://www.w3.org/1999/xhtml" style="display: flex; align-items: unsafe center; justify-content: unsafe center; width: 188px; height: 1px; padding-top: 527px; margin-left: 802px;"><div data-drawio-colors="color: rgb(0, 0, 0); " style="box-sizing: border-box; font-size: 0px; text-align: center; max-height: 90px; overflow: hidden;"><div style="display: inline-block; font-size: 16px; font-family: Helvetica; color: rgb(0, 0, 0); line-height: 1.2; pointer-events: all; white-space: normal; overflow-wrap: normal;"><div><font color="#ff0000">Email<br />Excel<br /></font></div><div>АБС<br />СМС шлюз</div></div></div></div></foreignObject><text x="896" y="532" fill="rgb(0, 0, 0)" font-family="Helvetica" font-size="16px" text-anchor="middle">Email...</text></switch></g><rect x="991" y="480" width="210" height="94" fill="rgb(255, 255, 255)" stroke="none" pointer-events="all"/><path d="M 991 480 L 1201 480 L 1201 574 L 991 574 L 991 480" fill="none" stroke="rgb(0, 0, 0)" stroke-linecap="square" stroke-miterlimit="10" pointer-events="all"/><rect x="1201" y="480" width="199" height="94" fill="rgb(255, 255, 255)" stroke="none" pointer-events="all"/><path d="M 1201 480 L 1400 480 L 1400 574 L 1201 574 L 1201 480" fill="none" stroke="rgb(0, 0, 0)" stroke-linecap="square" stroke-miterlimit="10" pointer-events="all"/><rect x="0" y="574" width="1400" height="95" fill="rgb(255, 255, 255)" stroke="none" pointer-events="none"/><path d="M 0 574 L 1400 574 L 1400 669 L 0 669 L 0 574" fill="none" stroke="rgb(0, 0, 0)" stroke-linecap="square" stroke-miterlimit="10" pointer-events="none"/><rect x="0" y="574" width="200" height="95" fill="rgb(255, 255, 255)" stroke="none" pointer-events="all"/><path d="M 0 574 L 200 574 L 200 669 L 0 669 L 0 574" fill="none" stroke="rgb(0, 0, 0)" stroke-linecap="square" stroke-miterlimit="10" pointer-events="all"/><g transform="translate(-0.5 -0.5)"><switch><foreignObject pointer-events="none" width="100%" height="100%" requiredFeatures="http://www.w3.org/TR/SVG11/feature#Extensibility" style="overflow: visible; text-align: left;"><div xmlns="http://www.w3.org/1999/xhtml" style="display: flex; align-items: unsafe center; justify-content: unsafe center; width: 198px; height: 1px; padding-top: 622px; margin-left: 1px;"><div data-drawio-colors="color: rgb(0, 0, 0); " style="box-sizing: border-box; font-size: 0px; text-align: center; max-height: 91px; overflow: hidden;"><div style="display: inline-block; font-size: 16px; font-family: Helvetica; color: rgb(0, 0, 0); line-height: 1.2; pointer-events: all; font-weight: bold; white-space: normal; overflow-wrap: normal;">Управление обслуживанием кредитных продуктов</div></div></div></foreignObject><text x="100" y="626" fill="rgb(0, 0, 0)" font-family="Helvetica" font-size="16px" text-anchor="middle" font-weight="bold">Управление обслуживанием кредитных продуктов</text></switch></g><rect x="200" y="574" width="200" height="95" fill="rgb(255, 255, 255)" stroke="none" pointer-events="all"/><path d="M 200 574 L 400 574 L 400 669 L 200 669 L 200 574" fill="none" stroke="rgb(0, 0, 0)" stroke-linecap="square" stroke-miterlimit="10" pointer-events="all"/><rect x="400" y="574" width="200" height="95" fill="rgb(255, 255, 255)" stroke="none" pointer-events="all"/><path d="M 400 574 L 600 574 L 600 669 L 400 669 L 400 574" fill="none" stroke="rgb(0, 0, 0)" stroke-linecap="square" stroke-miterlimit="10" pointer-events="all"/><rect x="600" y="574" width="201" height="95" fill="rgb(255, 255, 255)" stroke="none" pointer-events="all"/><path d="M 600 574 L 801 574 L 801 669 L 600 669 L 600 574" fill="none" stroke="rgb(0, 0, 0)" stroke-linecap="square" stroke-miterlimit="10" pointer-events="all"/><rect x="801" y="574" width="190" height="95" fill="rgb(255, 255, 255)" stroke="none" pointer-events="all"/><path d="M 801 574 L 991 574 L 991 669 L 801 669 L 801 574" fill="none" stroke="rgb(0, 0, 0)" stroke-linecap="square" stroke-miterlimit="10" pointer-events="all"/><rect x="991" y="574" width="210" height="95" fill="rgb(255, 255, 255)" stroke="none" pointer-events="all"/><path d="M 991 574 L 1201 574 L 1201 669 L 991 669 L 991 574" fill="none" stroke="rgb(0, 0, 0)" stroke-linecap="square" stroke-miterlimit="10" pointer-events="all"/><g transform="translate(-0.5 -0.5)"><switch><foreignObject pointer-events="none" width="100%" height="100%" requiredFeatures="http://www.w3.org/TR/SVG11/feature#Extensibility" style="overflow: visible; text-align: left;"><div xmlns="http://www.w3.org/1999/xhtml" style="display: flex; align-items: unsafe center; justify-content: unsafe center; width: 208px; height: 1px; padding-top: 622px; margin-left: 992px;"><div data-drawio-colors="color: rgb(0, 0, 0); " style="box-sizing: border-box; font-size: 0px; text-align: center; max-height: 91px; overflow: hidden;"><div style="display: inline-block; font-size: 16px; font-family: Helvetica; color: rgb(0, 0, 0); line-height: 1.2; pointer-events: all; white-space: normal; overflow-wrap: normal;"><div><font color="#ff0000">Email</font></div><div>АБС</div><div><font color="#ff0000">Excel</font></div></div></div></div></foreignObject><text x="1096" y="626" fill="rgb(0, 0, 0)" font-family="Helvetica" font-size="16px" text-anchor="middle">Email...</text></switch></g><rect x="1201" y="574" width="199" height="95" fill="rgb(255, 255, 255)" stroke="none" pointer-events="all"/><path d="M 1201 574 L 1400 574 L 1400 669 L 1201 669 L 1201 574" fill="none" stroke="rgb(0, 0, 0)" stroke-linecap="square" stroke-miterlimit="10" pointer-events="all"/><rect x="0" y="669" width="1400" height="94" fill="rgb(255, 255, 255)" stroke="none" pointer-events="none"/><path d="M 0 669 L 1400 669 L 1400 763 L 0 763 L 0 669" fill="none" stroke="rgb(0, 0, 0)" stroke-linecap="square" stroke-miterlimit="10" pointer-events="none"/><rect x="0" y="669" width="200" height="94" fill="rgb(255, 255, 255)" stroke="none" pointer-events="all"/><path d="M 0 669 L 200 669 L 200 763 L 0 763 L 0 669" fill="none" stroke="rgb(0, 0, 0)" stroke-linecap="square" stroke-miterlimit="10" pointer-events="all"/><g transform="translate(-0.5 -0.5)"><switch><foreignObject pointer-events="none" width="100%" height="100%" requiredFeatures="http://www.w3.org/TR/SVG11/feature#Extensibility" style="overflow: visible; text-align: left;"><div xmlns="http://www.w3.org/1999/xhtml" style="display: flex; align-items: unsafe center; justify-content: unsafe center; width: 198px; height: 1px; padding-top: 716px; margin-left: 1px;"><div data-drawio-colors="color: rgb(0, 0, 0); " style="box-sizing: border-box; font-size: 0px; text-align: center; max-height: 90px; overflow: hidden;"><div style="display: inline-block; font-size: 16px; font-family: Helvetica; color: rgb(0, 0, 0); line-height: 1.2; pointer-events: all; font-weight: bold; white-space: normal; overflow-wrap: normal;"><font style="font-size: 17px;"><span style="font-size: 16px;">Команда цифровой трансформации розничного бизнеса</span></font></div></div></div></foreignObject><text x="100" y="721" fill="rgb(0, 0, 0)" font-family="Helvetica" font-size="16px" text-anchor="middle" font-weight="bold">Команда цифровой трансформации розничного бизнеса</text></switch></g><rect x="200" y="669" width="200" height="94" fill="rgb(255, 255, 255)" stroke="none" pointer-events="all"/><path d="M 200 669 L 400 669 L 400 763 L 200 763 L 200 669" fill="none" stroke="rgb(0, 0, 0)" stroke-linecap="square" stroke-miterlimit="10" pointer-events="all"/><rect x="400" y="669" width="200" height="94" fill="rgb(255, 255, 255)" stroke="none" pointer-events="all"/><path d="M 400 669 L 600 669 L 600 763 L 400 763 L 400 669" fill="none" stroke="rgb(0, 0, 0)" stroke-linecap="square" stroke-miterlimit="10" pointer-events="all"/><rect x="600" y="669" width="201" height="94" fill="rgb(255, 255, 255)" stroke="none" pointer-events="all"/><path d="M 600 669 L 801 669 L 801 763 L 600 763 L 600 669" fill="none" stroke="rgb(0, 0, 0)" stroke-linecap="square" stroke-miterlimit="10" pointer-events="all"/><rect x="801" y="669" width="190" height="94" fill="rgb(255, 255, 255)" stroke="none" pointer-events="all"/><path d="M 801 669 L 991 669 L 991 763 L 801 763 L 801 669" fill="none" stroke="rgb(0, 0, 0)" stroke-linecap="square" stroke-miterlimit="10" pointer-events="all"/><rect x="991" y="669" width="210" height="94" fill="rgb(255, 255, 255)" stroke="none" pointer-events="all"/><path d="M 991 669 L 1201 669 L 1201 763 L 991 763 L 991 669" fill="none" stroke="rgb(0, 0, 0)" stroke-linecap="square" stroke-miterlimit="10" pointer-events="all"/><rect x="1201" y="669" width="199" height="94" fill="rgb(255, 255, 255)" stroke="none" pointer-events="all"/><path d="M 1201 669 L 1400 669 L 1400 763 L 1201 763 L 1201 669" fill="none" stroke="rgb(0, 0, 0)" stroke-linecap="square" stroke-miterlimit="10" pointer-events="all"/><rect x="0" y="763" width="1400" height="95" fill="rgb(255, 255, 255)" stroke="none" pointer-events="none"/><path d="M 0 763 L 1400 763 L 1400 858 L 0 858 L 0 763" fill="none" stroke="rgb(0, 0, 0)" stroke-linecap="square" stroke-miterlimit="10" pointer-events="none"/><rect x="0" y="763" width="200" height="95" fill="rgb(255, 255, 255)" stroke="none" pointer-events="all"/><path d="M 0 763 L 200 763 L 200 858 L 0 858 L 0 763" fill="none" stroke="rgb(0, 0, 0)" stroke-linecap="square" stroke-miterlimit="10" pointer-events="all"/><rect x="200" y="763" width="200" height="95" fill="rgb(255, 255, 255)" stroke="none" pointer-events="all"/><path d="M 200 763 L 400 763 L 400 858 L 200 858 L 200 763" fill="none" stroke="rgb(0, 0, 0)" stroke-linecap="square" stroke-miterlimit="10" pointer-events="all"/><rect x="400" y="763" width="200" height="95" fill="rgb(255, 255, 255)" stroke="none" pointer-events="all"/><path d="M 400 763 L 600 763 L 600 858 L 400 858 L 400 763" fill="none" stroke="rgb(0, 0, 0)" stroke-linecap="square" stroke-miterlimit="10" pointer-events="all"/><rect x="600" y="763" width="201" height="95" fill="rgb(255, 255, 255)" stroke="none" pointer-events="all"/><path d="M 600 763 L 801 763 L 801 858 L 600 858 L 600 763" fill="none" stroke="rgb(0, 0, 0)" stroke-linecap="square" stroke-miterlimit="10" pointer-events="all"/><rect x="801" y="763" width="190" height="95" fill="rgb(255, 255, 255)" stroke="none" pointer-events="all"/><path d="M 801 763 L 991 763 L 991 858 L 801 858 L 801 763" fill="none" stroke="rgb(0, 0, 0)" stroke-linecap="square" stroke-miterlimit="10" pointer-events="all"/><rect x="991" y="763" width="210" height="95" fill="rgb(255, 255, 255)" stroke="none" pointer-events="all"/><path d="M 991 763 L 1201 763 L 1201 858 L 991 858 L 991 763" fill="none" stroke="rgb(0, 0, 0)" stroke-linecap="square" stroke-miterlimit="10" pointer-events="all"/><rect x="1201" y="763" width="199" height="95" fill="rgb(255, 255, 255)" stroke="none" pointer-events="all"/><path d="M 1201 763 L 1400 763 L 1400 858 L 1201 858 L 1201 763" fill="none" stroke="rgb(0, 0, 0)" stroke-linecap="square" stroke-miterlimit="10" pointer-events="all"/><rect x="200" y="60" width="600" height="60" fill="#e1d5e7" stroke="#9673a6" pointer-events="all"/><g transform="translate(-0.5 -0.5)"><switch><foreignObject pointer-events="none" width="100%" height="100%" requiredFeatures="http://www.w3.org/TR/SVG11/feature#Extensibility" style="overflow: visible; text-align: left;"><div xmlns="http://www.w3.org/1999/xhtml" style="display: flex; align-items: unsafe center; justify-content: unsafe center; width: 598px; height: 1px; padding-top: 90px; margin-left: 201px;"><div data-drawio-colors="color: rgb(0, 0, 0); " style="box-sizing: border-box; font-size: 0px; text-align: center;"><div style="display: inline-block; font-size: 12px; font-family: Helvetica; color: rgb(0, 0, 0); line-height: 1.2; pointer-events: all; white-space: normal; overflow-wrap: normal;"><span style="font-size: 16px;">Продажи и маркетинг</span></div></div></div></foreignObject><text x="500" y="94" fill="rgb(0, 0, 0)" font-family="Helvetica" font-size="12px" text-anchor="middle">Продажи и маркетинг</text></switch></g><rect x="800" y="60" width="600" height="60" fill="#e1d5e7" stroke="#9673a6" pointer-events="all"/><g transform="translate(-0.5 -0.5)"><switch><foreignObject pointer-events="none" width="100%" height="100%" requiredFeatures="http://www.w3.org/TR/SVG11/feature#Extensibility" style="overflow: visible; text-align: left;"><div xmlns="http://www.w3.org/1999/xhtml" style="display: flex; align-items: unsafe center; justify-content: unsafe center; width: 598px; height: 1px; padding-top: 90px; margin-left: 801px;"><div data-drawio-colors="color: rgb(0, 0, 0); " style="box-sizing: border-box; font-size: 0px; text-align: center;"><div style="display: inline-block; font-size: 12px; font-family: Helvetica; color: rgb(0, 0, 0); line-height: 1.2; pointer-events: all; white-space: normal; overflow-wrap: normal;"><span style="font-size: 16px;">Поддержка операционных процессов</span></div></div></div></foreignObject><text x="1100" y="94" fill="rgb(0, 0, 0)" font-family="Helvetica" font-size="12px" text-anchor="middle">Поддержка операционных процессов</text></switch></g><rect x="0" y="0" width="1400" height="60" fill="#dae8fc" stroke="#6c8ebf" pointer-events="all"/><g transform="translate(-0.5 -0.5)"><switch><foreignObject pointer-events="none" width="100%" height="100%" requiredFeatures="http://www.w3.org/TR/SVG11/feature#Extensibility" style="overflow: visible; text-align: left;"><div xmlns="http://www.w3.org/1999/xhtml" style="display: flex; align-items: unsafe center; justify-content: unsafe center; width: 1398px; height: 1px; padding-top: 30px; margin-left: 1px;"><div data-drawio-colors="color: rgb(0, 0, 0); " style="box-sizing: border-box; font-size: 0px; text-align: center;"><div style="display: inline-block; font-size: 12px; font-family: Helvetica; color: rgb(0, 0, 0); line-height: 1.2; pointer-events: all; white-space: normal; overflow-wrap: normal;"><table cellspacing="0" cellpadding="0"><tbody><tr><td colspan="8" valign="top"><p class="p1" style="margin: 0px; font-variant-numeric: normal; font-variant-east-asian: normal; font-variant-alternates: normal; font-size-adjust: none; font-kerning: auto; font-optical-sizing: auto; font-feature-settings: normal; font-variation-settings: normal; font-variant-position: normal; font-variant-emoji: normal; font-stretch: normal; line-height: normal;">IT-ландшафт <span style="background-color: transparent; color: light-dark(rgb(0, 0, 0), rgb(255, 255, 255));">банка стандарт</span></p></td></tr></tbody></table></div></div></div></foreignObject><text x="700" y="34" fill="rgb(0, 0, 0)" font-family="Helvetica" font-size="12px" text-anchor="middle">IT-ландшафт банка стандарт</text></switch></g><rect x="0" y="60" width="200" height="60" fill="rgb(255, 255, 255)" stroke="rgb(0, 0, 0)" pointer-events="all"/></g><switch><g requiredFeatures="http://www.w3.org/TR/SVG11/feature#Extensibility"/><a transform="translate(0,-5)" xlink:href="https://www.drawio.com/doc/faq/svg-export-text-problems" target="_blank"><text text-anchor="middle" font-size="10px" x="50%" y="100%">Text is not SVG - cannot display</text></a></switch></svg>